<svg xmlns="http://www.w3.org/2000/svg" width="17.937" height="18" viewBox="0 0 17.937 18">
  <g id="admin_d" transform="translate(-0.5 -0.5)">
    <path id="Path_27965" data-name="Path 27965" d="M17.9,7.55l-1.2-.225a5.328,5.328,0,0,0-.6-1.35L16.85,5a.794.794,0,0,0-.075-.975L15.05,2.3a.786.786,0,0,0-.975-.075L13.1,2.9a8.939,8.939,0,0,0-1.5-.6l-.225-1.2a.73.73,0,0,0-.75-.6H8.15a.808.808,0,0,0-.75.6L7.25,2.3a3.875,3.875,0,0,0-1.425.6l-.9-.675A.707.707,0,0,0,3.95,2.3L2.225,4.025A.786.786,0,0,0,2.15,5l.675.9a5.237,5.237,0,0,0-.6,1.5L1.1,7.55a.73.73,0,0,0-.6.75v2.475a.808.808,0,0,0,.6.75l1.125.15a12.5,12.5,0,0,0,.6,1.5l-.6.9a.707.707,0,0,0,.075.975l1.725,1.725A.786.786,0,0,0,5,16.85l.9-.675a10.625,10.625,0,0,0,1.35.6L7.4,17.9a.73.73,0,0,0,.75.6h2.475a.808.808,0,0,0,.75-.6l.15-1.125a8.128,8.128,0,0,0,1.425-.6l.975.675a.786.786,0,0,0,.975-.075l1.725-1.725a.786.786,0,0,0,.075-.975l-.675-.975a10.625,10.625,0,0,0,.6-1.35l1.2-.225a.73.73,0,0,0,.6-.75V8.3a.673.673,0,0,0-.525-.75Zm-4.05,5.475a5.671,5.671,0,0,0-2.55-1.8c-.15-.075-.3,0-.375,0a4.38,4.38,0,0,1-1.35.3,2.746,2.746,0,0,1-1.35-.3.335.335,0,0,0-.375,0,5.292,5.292,0,0,0-2.55,1.8A5.608,5.608,0,0,1,9.725,3.95a5.554,5.554,0,0,1,5.55,5.625A7.854,7.854,0,0,1,13.85,13.025Z" transform="translate(0)" fill="#2e384d"/>
    <path id="Path_27966" data-name="Path 27966" d="M11.75,7.6A2.256,2.256,0,0,0,9.5,9.85a2.21,2.21,0,0,0,2.25,2.25A2.256,2.256,0,0,0,14,9.85,2.21,2.21,0,0,0,11.75,7.6Z" transform="translate(-2.25 -1.775)" fill="#2e384d"/>
  </g>
</svg>
