<svg xmlns="http://www.w3.org/2000/svg" width="14" height="14" viewBox="0 0 14 14">
  <g id="calendar" transform="translate(0 -4.289)">
    <g id="_x31_5_38_" transform="translate(0 4.289)">
      <g id="Group_346" data-name="Group 346" transform="translate(0 0)">
        <path id="Path_27969" data-name="Path 27969" d="M99.983,8.051h.206a.568.568,0,0,0,.568-.568V5.33a.568.568,0,0,0-.568-.568h-.206a.568.568,0,0,0-.568.568V7.483A.568.568,0,0,0,99.983,8.051Z" transform="translate(-96.554 -4.748)" fill="#878787"/>
        <path id="Path_27970" data-name="Path 27970" d="M344.849,7.578h.206a.568.568,0,0,0,.568-.568V4.857a.568.568,0,0,0-.568-.568h-.206a.568.568,0,0,0-.568.568V7.01A.568.568,0,0,0,344.849,7.578Z" transform="translate(-334.373 -4.289)" fill="#878787"/>
        <path id="Path_27971" data-name="Path 27971" d="M13.1,43.558H11.69v1.679a.892.892,0,0,1-1,.869h-.2a1.009,1.009,0,0,1-1-1.016V43.558H4.621V45.1a1.009,1.009,0,0,1-1,1.016h-.2a1.009,1.009,0,0,1-1-1.016V43.558H.9a.9.9,0,0,0-.9.911v11.01a.9.9,0,0,0,.9.911H13.1a.9.9,0,0,0,.9-.911V44.469A.9.9,0,0,0,13.1,43.558Zm0,11.921H.9V47.165H13.1v8.314Z" transform="translate(0 -42.39)" fill="#878787"/>
        <path id="Path_27972" data-name="Path 27972" d="M254.617,206.829h1.658a.119.119,0,0,0,.119-.119v-1.436a.119.119,0,0,0-.119-.119h-1.658a.119.119,0,0,0-.119.119v1.436A.119.119,0,0,0,254.617,206.829Z" transform="translate(-247.185 -199.262)" fill="#878787"/>
        <path id="Path_27973" data-name="Path 27973" d="M345.562,206.829h1.658a.119.119,0,0,0,.119-.119v-1.436a.119.119,0,0,0-.119-.119h-1.658a.119.119,0,0,0-.119.119v1.436A.119.119,0,0,0,345.562,206.829Z" transform="translate(-335.516 -199.262)" fill="#878787"/>
        <path id="Path_27974" data-name="Path 27974" d="M72.73,285.828h1.658a.119.119,0,0,0,.119-.119v-1.436a.119.119,0,0,0-.119-.119H72.73a.119.119,0,0,0-.119.119v1.436A.119.119,0,0,0,72.73,285.828Z" transform="translate(-70.451 -275.943)" fill="#878787"/>
        <path id="Path_27975" data-name="Path 27975" d="M163.674,285.828h1.658a.119.119,0,0,0,.119-.119v-1.436a.119.119,0,0,0-.119-.119h-1.658a.119.119,0,0,0-.119.119v1.436A.119.119,0,0,0,163.674,285.828Z" transform="translate(-158.855 -275.943)" fill="#878787"/>
        <path id="Path_27976" data-name="Path 27976" d="M254.618,285.828h1.658a.119.119,0,0,0,.119-.119v-1.436a.119.119,0,0,0-.119-.119h-1.658a.119.119,0,0,0-.119.119v1.436A.119.119,0,0,0,254.618,285.828Z" transform="translate(-247.186 -275.943)" fill="#878787"/>
        <path id="Path_27977" data-name="Path 27977" d="M345.562,285.828h1.658a.119.119,0,0,0,.119-.119v-1.436a.119.119,0,0,0-.119-.119h-1.658a.119.119,0,0,0-.119.119v1.436A.119.119,0,0,0,345.562,285.828Z" transform="translate(-335.516 -275.943)" fill="#878787"/>
        <path id="Path_27978" data-name="Path 27978" d="M74.389,363.154H72.731a.119.119,0,0,0-.119.119v1.436a.119.119,0,0,0,.119.119h1.658a.119.119,0,0,0,.119-.119v-1.436A.119.119,0,0,0,74.389,363.154Z" transform="translate(-70.452 -352.65)" fill="#878787"/>
        <path id="Path_27979" data-name="Path 27979" d="M165.333,363.154h-1.658a.119.119,0,0,0-.119.119v1.436a.119.119,0,0,0,.119.119h1.658a.119.119,0,0,0,.119-.119v-1.436A.119.119,0,0,0,165.333,363.154Z" transform="translate(-158.856 -352.65)" fill="#878787"/>
        <path id="Path_27980" data-name="Path 27980" d="M256.277,363.154h-1.658a.119.119,0,0,0-.119.119v1.436a.119.119,0,0,0,.119.119h1.658a.119.119,0,0,0,.119-.119v-1.436A.119.119,0,0,0,256.277,363.154Z" transform="translate(-247.187 -352.65)" fill="#878787"/>
        <path id="Path_27981" data-name="Path 27981" d="M347.22,363.154h-1.658a.119.119,0,0,0-.119.119v1.436a.119.119,0,0,0,.119.119h1.658a.119.119,0,0,0,.119-.119v-1.436A.119.119,0,0,0,347.22,363.154Z" transform="translate(-335.516 -352.65)" fill="#878787"/>
      </g>
    </g>
  </g>
</svg>
