<svg id="clock" xmlns="http://www.w3.org/2000/svg" width="14" height="14" viewBox="0 0 14 14">
  <g id="Group_348" data-name="Group 348" transform="translate(0 0)">
    <g id="Group_347" data-name="Group 347">
      <path id="Path_27982" data-name="Path 27982" d="M11.95,2.05a7,7,0,0,0-9.9,9.9,7,7,0,0,0,9.9-9.9ZM7,12.626A5.632,5.632,0,0,1,1.374,7c0-.005,0-.01,0-.015s0,0,0,0,0,0,0-.006a5.632,5.632,0,0,1,5.549-5.6H7A5.626,5.626,0,1,1,7,12.626Z" transform="translate(0 0)" fill="#878787"/>
    </g>
  </g>
  <g id="Group_350" data-name="Group 350" transform="translate(2.188 2.185)">
    <g id="Group_349" data-name="Group 349">
      <path id="Path_27983" data-name="Path 27983" d="M90.255,86.184a.417.417,0,1,1,0-.834h.5a4.837,4.837,0,0,0-4.444-4.321v.437a.417.417,0,1,1-.834,0v-.427a4.837,4.837,0,0,0-4.334,4.369h.45a.417.417,0,1,1,0,.834h-.453a4.836,4.836,0,0,0,4.4,4.412v-.528a.417.417,0,0,1,.834,0v.528a4.836,4.836,0,0,0,4.4-4.47Zm-2.613-1.438-1.393,1.393a.417.417,0,0,1-.59,0l-2.424-2.424a.417.417,0,0,1,.59-.59l2.13,2.129,1.1-1.1a.417.417,0,1,1,.589.59Z" transform="translate(-81.142 -81.029)" fill="#878787"/>
    </g>
  </g>
</svg>
