<svg xmlns="http://www.w3.org/2000/svg" width="14" height="9.397" viewBox="0 0 14 9.397">
  <path id="eye_open" d="M13.915,8.841A7.791,7.791,0,0,0,7,4.5,7.792,7.792,0,0,0,.085,8.841a.8.8,0,0,0,0,.714A7.791,7.791,0,0,0,7,13.9a7.792,7.792,0,0,0,6.915-4.341A.8.8,0,0,0,13.915,8.841ZM7,12.722A3.524,3.524,0,1,1,10.5,9.2,3.512,3.512,0,0,1,7,12.722ZM7,6.849a2.3,2.3,0,0,0-.615.093,1.177,1.177,0,0,1-.114,1.522,1.157,1.157,0,0,1-1.512.115,2.352,2.352,0,0,0,.95,2.56,2.315,2.315,0,0,0,2.713-.086,2.353,2.353,0,0,0,.787-2.616A2.329,2.329,0,0,0,7,6.849Z" transform="translate(0 -4.5)" fill="#2e384d"/>
</svg>
