<svg xmlns="http://www.w3.org/2000/svg" width="14.003" height="12" viewBox="0 0 14.003 12">
  <path id="eye_close" d="M8,4.525a3.174,3.174,0,0,1,3.184,3.159,3.039,3.039,0,0,1-.228,1.156l1.859,1.844a7.471,7.471,0,0,0,2.184-3,7.541,7.541,0,0,0-9.541-4.3L6.837,4.753A3.149,3.149,0,0,1,8,4.525ZM1.638,2.8,3.091,4.244l.294.291A7.435,7.435,0,0,0,1,7.684a7.552,7.552,0,0,0,9.791,4.206l.269.266L12.925,14l.809-.8L2.444,2ZM5.156,6.294l.988.978a1.79,1.79,0,0,0-.05.409A1.9,1.9,0,0,0,8,9.575a1.8,1.8,0,0,0,.413-.05L9.4,10.5A3.168,3.168,0,0,1,4.819,7.678,3.121,3.121,0,0,1,5.156,6.294ZM7.9,5.8,9.906,7.794l.012-.1A1.9,1.9,0,0,0,8.009,5.8Z" transform="translate(-1 -2)" fill="#8b8fae"/>
</svg>
