<svg xmlns="http://www.w3.org/2000/svg" width="16" height="15.822" viewBox="0 0 16 15.822">
  <path id="filter" d="M108.845,37.733a2.212,2.212,0,0,0-2.122,1.634H105.58a.571.571,0,1,0,0,1.143h1.141a2.2,2.2,0,0,0,4.24.028l9.475-.028h0a.571.571,0,0,0,0-1.143l-9.459.028a2.214,2.214,0,0,0-2.132-1.662Zm0,1.143a1.065,1.065,0,1,1-1.065,1.065A1.056,1.056,0,0,1,108.845,38.876Zm6.105,4.38a2.24,2.24,0,0,0-2.153,1.663H105.58a.571.571,0,1,0,0,1.143H112.8a2.223,2.223,0,0,0,4.3,0h3.334a.571.571,0,0,0,0-1.143H117.1a2.24,2.24,0,0,0-2.153-1.663Zm0,1.143a1.092,1.092,0,1,1-1.094,1.091A1.083,1.083,0,0,1,114.95,44.4Zm-4.441,4.683a2.243,2.243,0,0,0-2.153,1.663H105.58a.571.571,0,1,0,0,1.143h2.775a2.224,2.224,0,0,0,4.307,0h7.774a.571.571,0,0,0,0-1.143h-7.775a2.242,2.242,0,0,0-2.152-1.663Zm0,1.143a1.094,1.094,0,1,1-1.094,1.094A1.085,1.085,0,0,1,110.509,50.224Z" transform="translate(-105.006 -37.733)" fill="#1e478e"/>
</svg>
