<svg xmlns="http://www.w3.org/2000/svg" width="170" height="82" viewBox="0 0 170 82">
  <g id="Logo" transform="translate(-48.356 979.736)">
    <path id="path1024" d="M63.034-956.183l-9.3-15.1h-.1l.131,15.1H48.356v-23.093h6.359l9.263,15.068h.1l-.131-15.068h5.415v23.093Z" transform="translate(0 0.161)" fill="#f68b33"/>
    <path id="path1028" d="M78.854-965.971v9.788H73.275v-9.788L64.6-979.278H71.35l4.925,8.547,4.925-8.547h6.523Z" transform="translate(5.672 0.16)" fill="#f68b33"/>
    <path id="path1040" d="M97.491-956.431a12.381,12.381,0,0,1-5.185,1.029,13.5,13.5,0,0,1-4.942-.883,11.648,11.648,0,0,1-3.932-2.493,11.629,11.629,0,0,1-2.608-3.868,12.668,12.668,0,0,1-.944-4.956,12.635,12.635,0,0,1,.961-5.023,11.19,11.19,0,0,1,2.659-3.832,11.756,11.756,0,0,1,3.979-2.43,13.994,13.994,0,0,1,4.924-.849,14,14,0,0,1,4.81.862,9.256,9.256,0,0,1,3.835,2.529l-3.785,3.785a4.658,4.658,0,0,0-2.056-1.6,6.776,6.776,0,0,0-2.607-.525,6.62,6.62,0,0,0-2.691.538,6.425,6.425,0,0,0-2.1,1.484,6.794,6.794,0,0,0-1.369,2.234,7.909,7.909,0,0,0-.489,2.822,8.124,8.124,0,0,0,.489,2.871,6.652,6.652,0,0,0,1.355,2.233,6.077,6.077,0,0,0,2.071,1.452,6.553,6.553,0,0,0,2.641.522,6.15,6.15,0,0,0,2.9-.653,5.609,5.609,0,0,0,1.988-1.695l3.882,3.654a10.964,10.964,0,0,1-3.783,2.788" transform="translate(10.996 0)" fill="#f68b33"/>
    <path id="path1044" d="M62.934-934.427v-9.655h-9v9.655H48.356V-957.52h5.579v8.743h9v-8.743h5.577v23.093Z" transform="translate(0 7.237)" fill="#1e478e"/>
    <path id="path1048" d="M65.8-934.427V-957.52H81.319v4.7H71.174v4.371h9.59v4.469h-9.59v4.8H81.907v4.762Z" transform="translate(6.09 7.237)" fill="#1e478e"/>
    <path id="path1052" d="M97.1-934.429l-1.794-4.533H86.37l-1.7,4.533H78.606L88.3-957.52h5.413l9.588,23.091Zm-6.2-16.926-2.936,7.924h5.805Z" transform="translate(10.552 7.237)" fill="#1e478e"/>
    <path id="path1056" d="M97.729-934.427V-957.52h5.609v18.23h8.939v4.862Z" transform="translate(17.223 7.237)" fill="#1e478e"/>
    <path id="path1060" d="M118.9-952.759v18.331h-5.577v-18.331H106.8v-4.76h18.624v4.76Z" transform="translate(20.388 7.238)" fill="#1e478e"/>
    <path id="path1064" d="M136.964-934.427v-9.655h-9v9.655h-5.577V-957.52h5.577v8.743h9v-8.743h5.578v23.093Z" transform="translate(25.823 7.237)" fill="#1e478e"/>
    <path id="path1068" d="M62.934-912.672v-9.655h-9v9.655H48.356v-23.091h5.579v8.741h9v-8.741h5.577v23.091Z" transform="translate(0 14.315)" fill="#1e478e"/>
    <path id="path1080" d="M90.061-924.154a12.928,12.928,0,0,1-.943,5.006,11.455,11.455,0,0,1-2.628,3.882,11.72,11.72,0,0,1-4,2.5,13.994,13.994,0,0,1-5.023.88,13.864,13.864,0,0,1-5.006-.88,11.71,11.71,0,0,1-3.977-2.5,11.348,11.348,0,0,1-2.626-3.882,12.863,12.863,0,0,1-.946-5.006,12.711,12.711,0,0,1,.946-5.006,10.934,10.934,0,0,1,2.626-3.8,11.719,11.719,0,0,1,3.977-2.412,14.379,14.379,0,0,1,5.006-.849,14.518,14.518,0,0,1,5.023.849,11.731,11.731,0,0,1,4,2.412,11.035,11.035,0,0,1,2.628,3.8,12.775,12.775,0,0,1,.943,5.006m-5.967,0a7.874,7.874,0,0,0-.491-2.8,6.64,6.64,0,0,0-1.351-2.236,6.3,6.3,0,0,0-2.089-1.47,6.65,6.65,0,0,0-2.691-.536,6.521,6.521,0,0,0-2.673.536,6.54,6.54,0,0,0-2.09,1.47,6.311,6.311,0,0,0-1.351,2.236,8.114,8.114,0,0,0-.473,2.8,8.313,8.313,0,0,0,.488,2.887A6.887,6.887,0,0,0,72.724-919a6.163,6.163,0,0,0,2.074,1.484,6.465,6.465,0,0,0,2.673.538,6.471,6.471,0,0,0,2.673-.538A6.318,6.318,0,0,0,82.235-919a6.681,6.681,0,0,0,1.367-2.265,8.231,8.231,0,0,0,.491-2.887" transform="translate(5.783 14.154)" fill="#1e478e"/>
    <path id="path1084" d="M97.86-929.608a5.006,5.006,0,0,0-1.874-1.453,5.276,5.276,0,0,0-2.232-.54,6.466,6.466,0,0,0-1.124.1,2.876,2.876,0,0,0-1.029.376,2.536,2.536,0,0,0-.768.716,1.929,1.929,0,0,0-.309,1.128,1.81,1.81,0,0,0,.246.977,2.16,2.16,0,0,0,.714.685,6.647,6.647,0,0,0,1.126.538c.437.162.925.333,1.47.5q1.174.4,2.447.865a9.189,9.189,0,0,1,2.315,1.257,6.6,6.6,0,0,1,1.727,1.938,5.6,5.6,0,0,1,.685,2.889,7.549,7.549,0,0,1-.732,3.44,6.853,6.853,0,0,1-1.975,2.4,8.541,8.541,0,0,1-2.835,1.4,11.966,11.966,0,0,1-3.3.455,13.668,13.668,0,0,1-4.8-.865,10.189,10.189,0,0,1-3.848-2.461l3.654-3.72a6.714,6.714,0,0,0,2.234,1.745,6.041,6.041,0,0,0,2.756.7,5.48,5.48,0,0,0,1.207-.133,2.944,2.944,0,0,0,1.027-.423,2.116,2.116,0,0,0,.7-.783,2.464,2.464,0,0,0,.263-1.176,1.862,1.862,0,0,0-.326-1.106,3.189,3.189,0,0,0-.93-.833,7.813,7.813,0,0,0-1.5-.684q-.9-.313-2.038-.669a19.371,19.371,0,0,1-2.17-.849,7.324,7.324,0,0,1-1.892-1.254,5.81,5.81,0,0,1-1.337-1.86,6.311,6.311,0,0,1-.506-2.659,6.523,6.523,0,0,1,.783-3.292,6.812,6.812,0,0,1,2.053-2.25,8.866,8.866,0,0,1,2.873-1.29,13.007,13.007,0,0,1,3.229-.407,11.962,11.962,0,0,1,3.994.716,10.305,10.305,0,0,1,3.573,2.119Z" transform="translate(12.354 14.163)" fill="#1e478e"/>
    <path id="path1088" d="M116.346-928.654a7.081,7.081,0,0,1-.75,3.409,6.16,6.16,0,0,1-2.024,2.233,8.822,8.822,0,0,1-2.934,1.24,14.969,14.969,0,0,1-3.456.39H104.41v8.71H98.832v-23.091h8.48a16.137,16.137,0,0,1,3.538.374,8.3,8.3,0,0,1,2.869,1.209A5.838,5.838,0,0,1,115.645-932a7.232,7.232,0,0,1,.7,3.344m-5.577.032a2.51,2.51,0,0,0-.327-1.337,2.289,2.289,0,0,0-.88-.817,3.858,3.858,0,0,0-1.256-.39,10.588,10.588,0,0,0-1.452-.1H104.41v5.445h2.349a8.4,8.4,0,0,0,1.5-.13,3.955,3.955,0,0,0,1.288-.459,2.422,2.422,0,0,0,.9-.863,2.575,2.575,0,0,0,.327-1.353" transform="translate(17.607 14.315)" fill="#1e478e"/>
    <path id="path1090" d="M113.433-935.763h5.609v23.091h-5.609Z" transform="translate(22.703 14.315)" fill="#1e478e"/>
    <path id="path1094" d="M131.285-931v18.331h-5.577V-931h-6.523v-4.762H137.81V-931Z" transform="translate(24.707 14.315)" fill="#1e478e"/>
    <path id="path1098" d="M149.163-912.672l-1.794-4.535h-8.935l-1.7,4.535h-6.068l9.691-23.091h5.413l9.587,23.091Zm-6.2-16.928-2.938,7.926h5.807Z" transform="translate(28.711 14.315)" fill="#1e478e"/>
    <path id="path1102" d="M150.118-912.672v-23.091h5.611v18.232h8.939v4.859Z" transform="translate(35.493 14.315)" fill="#1e478e"/>
    <path id="path1114" d="M175.4-929.608a5.027,5.027,0,0,0-1.876-1.453,5.269,5.269,0,0,0-2.232-.54,6.517,6.517,0,0,0-1.126.1,2.87,2.87,0,0,0-1.025.376,2.515,2.515,0,0,0-.768.716,1.916,1.916,0,0,0-.309,1.128,1.794,1.794,0,0,0,.245.977,2.167,2.167,0,0,0,.716.685,6.516,6.516,0,0,0,1.126.538c.434.162.923.333,1.468.5q1.174.4,2.447.865a9.159,9.159,0,0,1,2.315,1.257,6.578,6.578,0,0,1,1.729,1.938,5.6,5.6,0,0,1,.684,2.889,7.526,7.526,0,0,1-.732,3.44,6.853,6.853,0,0,1-1.975,2.4,8.524,8.524,0,0,1-2.835,1.4,11.953,11.953,0,0,1-3.294.455,13.66,13.66,0,0,1-4.8-.865,10.182,10.182,0,0,1-3.85-2.461l3.655-3.72a6.688,6.688,0,0,0,2.232,1.745,6.043,6.043,0,0,0,2.758.7,5.492,5.492,0,0,0,1.207-.133,2.934,2.934,0,0,0,1.025-.423,2.136,2.136,0,0,0,.7-.783,2.486,2.486,0,0,0,.261-1.176,1.851,1.851,0,0,0-.327-1.106,3.149,3.149,0,0,0-.926-.833,7.835,7.835,0,0,0-1.5-.684c-.6-.209-1.279-.432-2.038-.669a19.506,19.506,0,0,1-2.17-.849,7.354,7.354,0,0,1-1.892-1.254,5.837,5.837,0,0,1-1.337-1.86,6.312,6.312,0,0,1-.5-2.659,6.541,6.541,0,0,1,.781-3.292,6.784,6.784,0,0,1,2.056-2.25,8.83,8.83,0,0,1,2.869-1.29,13.011,13.011,0,0,1,3.231-.407,11.977,11.977,0,0,1,3.994.716,10.33,10.33,0,0,1,3.571,2.119Z" transform="translate(39.401 14.163)" fill="#1e478e"/>
    <path id="path1118" d="M164.644-948.781H155.9v-8.738h-5.611v8.738h-8.739v5.614h8.739v8.737H155.9v-8.737h8.741Z" transform="translate(32.502 7.238)" fill="#4598cb"/>
  </g>
</svg>
