<svg xmlns="http://www.w3.org/2000/svg" width="20.637" height="19.276" viewBox="0 0 20.637 19.276">
  <g id="patient_d" transform="translate(0 0)">
    <path id="Path_27889" data-name="Path 27889" d="M244.344,138.742a4.43,4.43,0,1,1-4.43-4.43,4.43,4.43,0,0,1,4.43,4.43" transform="translate(-232.813 -134.312)" fill="#2e384d"/>
    <path id="Path_27890" data-name="Path 27890" d="M206.888,275.966h-1.716l-2.447,2.005a.367.367,0,0,0-.138.282v2a.376.376,0,0,1-.326.376.363.363,0,0,1-.4-.362v-2.374a.065.065,0,0,1,.007-.036c0-.014.007-.022.007-.036s.007-.022.007-.036.007-.022.014-.036.007-.022.014-.029.014-.022.022-.029a.1.1,0,0,0,.022-.029c.007-.007.014-.022.029-.029l.014-.014.615-.5a.128.128,0,0,0-.094-.224c-.094.007-.2.014-.29.014a3.131,3.131,0,0,1-2.208-.956h-2.447c-1.354,0-2.454,1.383-2.454,3.091v6.3a.451.451,0,0,0,.449.449h13.333a.451.451,0,0,0,.449-.449v-6.283c-.014-1.708-1.115-3.091-2.468-3.091Z" transform="translate(-195.126 -266.578)" fill="#2e384d"/>
    <path id="Path_27891" data-name="Path 27891" d="M439.3,183.629a.362.362,0,1,1,0-.724h2.6v-.384h-2.034a.362.362,0,1,1,0-.724h2.034v-.384h-2.034a.362.362,0,1,1,0-.724h2.034v-.42h-2.6a.362.362,0,1,1,0-.724h2.591a.945.945,0,0,0-.934-.832h-2.729a.939.939,0,0,0-.941.941v4.56c0,.521,1.079,2.056,1.6,2.056H440.3c.521,0,1.6-1.535,1.6-2.056v-.586Z" transform="translate(-421.258 -175.775)" fill="#2e384d"/>
    <path id="Path_27892" data-name="Path 27892" d="M460.8,303.979v1.086a.137.137,0,0,0,.138.138h1.18a.137.137,0,0,0,.138-.138v-1.086a.137.137,0,0,0-.138-.138h-1.18A.133.133,0,0,0,460.8,303.979Z" transform="translate(-443.217 -292.622)" fill="#2e384d"/>
    <path id="Path_27893" data-name="Path 27893" d="M423.718,335.23a.153.153,0,0,0-.152.152v3.388c0,.63-.709,1.716-1.433,1.716h-1.491a.153.153,0,0,0-.152.152v.167a.98.98,0,0,1-.029.21.153.153,0,0,0,.145.2h1.535c1.187,0,2.157-1.477,2.157-2.439v-3.388a.153.153,0,0,0-.152-.152Z" transform="translate(-405.542 -321.933)" fill="#2e384d"/>
  </g>
</svg>
