<svg id="report_s" xmlns="http://www.w3.org/2000/svg" width="14.591" height="18" viewBox="0 0 14.591 18">
  <path id="Path_27963" data-name="Path 27963" d="M150.32,20.631h-3.706a.819.819,0,0,1-.818-.818v-3.54a.817.817,0,0,1,.048-.273h-9.569a.272.272,0,0,0-.194.082.264.264,0,0,0-.079.191V33.728a.272.272,0,0,0,.273.273H150.32a.27.27,0,0,0,.273-.273V20.582a.8.8,0,0,1-.273.049Zm-9.494-2.252a2.6,2.6,0,0,1,2.15,1.654l-2.15.576Zm-.545,0v2.582a.272.272,0,0,0,.341.264l2.494-.666a2.593,2.593,0,1,1-2.835-2.18Zm8.011,12.61H138.11a.273.273,0,1,1,0-.545h.411V26.225a.27.27,0,0,1,.273-.273h1.276a.272.272,0,0,1,.273.273v4.219h.69V24.888a.274.274,0,0,1,.079-.194.281.281,0,0,1,.194-.079h1.276a.274.274,0,0,1,.273.273v5.555h.69V27.116a.274.274,0,0,1,.079-.194.281.281,0,0,1,.194-.079h1.276a.274.274,0,0,1,.273.273v3.327h.69V23.519a.27.27,0,0,1,.273-.273h1.276a.272.272,0,0,1,.273.273v6.924h.413a.273.273,0,1,1,0,.545Z" transform="translate(-136.002 -16)" fill="#fcfdff"/>
  <path id="Path_27964" data-name="Path 27964" d="M439.556,20.112h3.706a.272.272,0,0,0,.188-.469l-3.706-3.54a.278.278,0,0,0-.3-.054.271.271,0,0,0-.164.251v3.54a.272.272,0,0,0,.273.273Z" transform="translate(-428.944 -16.027)" fill="#fcfdff"/>
</svg>
