<svg xmlns="http://www.w3.org/2000/svg" width="13" height="18" viewBox="0 0 13 18">
  <g id="roster_upload_s" transform="translate(-51.988 -0.001)">
    <g id="Group_357" data-name="Group 357" transform="translate(51.988 0.001)">
      <g id="Group_356" data-name="Group 356" transform="translate(0 0)">
        <path id="Path_27984" data-name="Path 27984" d="M141.732,1.4h-1.348a.378.378,0,0,1-.355-.284A1.371,1.371,0,0,0,138.635,0a1.4,1.4,0,0,0-1.395,1.135.355.355,0,0,1-.355.26h-1.3V3.761h6.147Z" transform="translate(-132.159 -0.001)" fill="#fff"/>
        <path id="Path_27985" data-name="Path 27985" d="M64.988,76.262V63.078a.932.932,0,0,0-.916-.946l-.07,0H62.074v1.173c0,.184-.112.437-.291.437H55.171c-.179,0-.269-.253-.269-.437V62.135H52.974a.927.927,0,0,0-.984.872q0,.036,0,.072V76.262a1.024,1.024,0,0,0,.986,1.058H64a1.024,1.024,0,0,0,.986-1.058Zm-8.315-3.037L54.924,74.9a.311.311,0,0,1-.224.115.355.355,0,0,1-.247-.115l-.919-.966a.352.352,0,0,1,.022-.483.33.33,0,0,1,.471,0l.672.736,1.524-1.473a.331.331,0,0,1,.468.088A.352.352,0,0,1,56.672,73.225Zm0-3.681h0l-1.748,1.68a.311.311,0,0,1-.224.115.355.355,0,0,1-.247-.115l-.919-.966a.352.352,0,0,1,.022-.483.33.33,0,0,1,.471,0l.672.736,1.524-1.473a.331.331,0,0,1,.468.088A.352.352,0,0,1,56.672,69.544Zm0-3.681-1.748,1.68a.311.311,0,0,1-.224.115.355.355,0,0,1-.247-.115l-.919-.966a.352.352,0,0,1,.022-.483.33.33,0,0,1,.471,0l.672.736,1.524-1.473a.331.331,0,0,1,.468.088A.352.352,0,0,1,56.672,65.863Zm6.522,8.7H58.04a.345.345,0,0,1,0-.69h5.155a.345.345,0,0,1,0,.69Zm0-3.681H58.04a.345.345,0,0,1,0-.69h5.155a.345.345,0,0,1,0,.69Zm0-3.681H58.04a.345.345,0,0,1,0-.69h5.155a.345.345,0,0,1,0,.69Z" transform="translate(-51.988 -59.321)" fill="#fff"/>
      </g>
    </g>
  </g>
</svg>
