<svg xmlns="http://www.w3.org/2000/svg" width="12" height="15" viewBox="0 0 12 15">
  <g id="user_icon" transform="translate(0 0)">
    <path id="Path_27967" data-name="Path 27967" d="M90.467,7.007A3.292,3.292,0,0,0,92.9,5.981,3.424,3.424,0,0,0,93.9,3.5,3.425,3.425,0,0,0,92.9,1.026a3.388,3.388,0,0,0-4.858,0A3.424,3.424,0,0,0,87.032,3.5a3.424,3.424,0,0,0,1.007,2.477A3.293,3.293,0,0,0,90.467,7.007Zm0,0" transform="translate(-84.559)" fill="#878787"/>
    <path id="Path_27968" data-name="Path 27968" d="M11.971,251.475a8.747,8.747,0,0,0-.117-.919,7.31,7.31,0,0,0-.224-.924,4.591,4.591,0,0,0-.376-.862,3.249,3.249,0,0,0-.566-.747,2.494,2.494,0,0,0-.814-.517,2.784,2.784,0,0,0-1.039-.19,1.048,1.048,0,0,0-.563.242c-.169.111-.366.24-.587.382a3.343,3.343,0,0,1-.759.338,2.916,2.916,0,0,1-1.857,0,3.336,3.336,0,0,1-.758-.338c-.218-.141-.416-.27-.587-.383a1.046,1.046,0,0,0-.563-.242,2.781,2.781,0,0,0-1.039.19,2.492,2.492,0,0,0-.814.517,3.249,3.249,0,0,0-.566.746,4.6,4.6,0,0,0-.376.862,7.328,7.328,0,0,0-.223.924,8.717,8.717,0,0,0-.117.919c-.019.278-.029.567-.029.859a2.43,2.43,0,0,0,.709,1.827,2.537,2.537,0,0,0,1.828.674H9.463a2.536,2.536,0,0,0,1.828-.674A2.429,2.429,0,0,0,12,252.335c0-.293-.01-.582-.029-.859Zm0,0" transform="translate(0 -239.836)" fill="#878787"/>
  </g>
</svg>
